<svg id="visual" viewBox="0 0 1400 1900" width="1400" height="1900" xmlns="http://www.w3.org/2000/svg" xmlns:xlink="http://www.w3.org/1999/xlink" version="1.1"><path d="M0 495L33.3 466.5C66.7 438 133.3 381 200 362C266.7 343 333.3 362 400 374.7C466.7 387.3 533.3 393.7 600 387.3C666.7 381 733.3 362 800 355.7C866.7 349.3 933.3 355.7 1000 377.8C1066.7 400 1133.3 438 1200 460.2C1266.7 482.3 1333.3 488.7 1366.7 491.8L1400 495L1400 0L1366.7 0C1333.3 0 1266.7 0 1200 0C1133.3 0 1066.7 0 1000 0C933.3 0 866.7 0 800 0C733.3 0 666.7 0 600 0C533.3 0 466.7 0 400 0C333.3 0 266.7 0 200 0C133.3 0 66.7 0 33.3 0L0 0Z" fill="#ffffff"></path><path d="M0 590L33.3 564.7C66.7 539.3 133.3 488.7 200 469.7C266.7 450.7 333.3 463.3 400 476C466.7 488.7 533.3 501.3 600 495C666.7 488.7 733.3 463.3 800 453.8C866.7 444.3 933.3 450.7 1000 476C1066.7 501.3 1133.3 545.7 1200 567.8C1266.7 590 1333.3 590 1366.7 590L1400 590L1400 493L1366.7 489.8C1333.3 486.7 1266.7 480.3 1200 458.2C1133.3 436 1066.7 398 1000 375.8C933.3 353.7 866.7 347.3 800 353.7C733.3 360 666.7 379 600 385.3C533.3 391.7 466.7 385.3 400 372.7C333.3 360 266.7 341 200 360C133.3 379 66.7 436 33.3 464.5L0 493Z" fill="#fff5e8"></path><path d="M0 780L33.3 751.5C66.7 723 133.3 666 200 650.2C266.7 634.3 333.3 659.7 400 678.7C466.7 697.7 533.3 710.3 600 700.8C666.7 691.3 733.3 659.7 800 643.8C866.7 628 933.3 628 1000 653.3C1066.7 678.7 1133.3 729.3 1200 751.5C1266.7 773.7 1333.3 767.3 1366.7 764.2L1400 761L1400 588L1366.7 588C1333.3 588 1266.7 588 1200 565.8C1133.3 543.7 1066.7 499.3 1000 474C933.3 448.7 866.7 442.3 800 451.8C733.3 461.3 666.7 486.7 600 493C533.3 499.3 466.7 486.7 400 474C333.3 461.3 266.7 448.7 200 467.7C133.3 486.7 66.7 537.3 33.3 562.7L0 588Z" fill="#ffecd1"></path><path d="M0 856L33.3 830.7C66.7 805.3 133.3 754.7 200 742C266.7 729.3 333.3 754.7 400 773.7C466.7 792.7 533.3 805.3 600 792.7C666.7 780 733.3 742 800 726.2C866.7 710.3 933.3 716.7 1000 742C1066.7 767.3 1133.3 811.7 1200 833.8C1266.7 856 1333.3 856 1366.7 856L1400 856L1400 759L1366.7 762.2C1333.3 765.3 1266.7 771.7 1200 749.5C1133.3 727.3 1066.7 676.7 1000 651.3C933.3 626 866.7 626 800 641.8C733.3 657.7 666.7 689.3 600 698.8C533.3 708.3 466.7 695.7 400 676.7C333.3 657.7 266.7 632.3 200 648.2C133.3 664 66.7 721 33.3 749.5L0 778Z" fill="#ffe2bb"></path><path d="M0 1008L33.3 982.7C66.7 957.3 133.3 906.7 200 890.8C266.7 875 333.3 894 400 916.2C466.7 938.3 533.3 963.7 600 954.2C666.7 944.7 733.3 900.3 800 884.5C866.7 868.7 933.3 881.3 1000 909.8C1066.7 938.3 1133.3 982.7 1200 998.5C1266.7 1014.3 1333.3 1001.7 1366.7 995.3L1400 989L1400 854L1366.7 854C1333.3 854 1266.7 854 1200 831.8C1133.3 809.7 1066.7 765.3 1000 740C933.3 714.7 866.7 708.3 800 724.2C733.3 740 666.7 778 600 790.7C533.3 803.3 466.7 790.7 400 771.7C333.3 752.7 266.7 727.3 200 740C133.3 752.7 66.7 803.3 33.3 828.7L0 854Z" fill="#ffd9a4"></path><path d="M0 1236L33.3 1213.8C66.7 1191.7 133.3 1147.3 200 1134.7C266.7 1122 333.3 1141 400 1153.7C466.7 1166.3 533.3 1172.7 600 1163.2C666.7 1153.7 733.3 1128.3 800 1118.8C866.7 1109.3 933.3 1115.7 1000 1137.8C1066.7 1160 1133.3 1198 1200 1210.7C1266.7 1223.3 1333.3 1210.7 1366.7 1204.3L1400 1198L1400 987L1366.7 993.3C1333.3 999.7 1266.7 1012.3 1200 996.5C1133.3 980.7 1066.7 936.3 1000 907.8C933.3 879.3 866.7 866.7 800 882.5C733.3 898.3 666.7 942.7 600 952.2C533.3 961.7 466.7 936.3 400 914.2C333.3 892 266.7 873 200 888.8C133.3 904.7 66.7 955.3 33.3 980.7L0 1006Z" fill="#ffcf8e"></path><path d="M0 1350L33.3 1331C66.7 1312 133.3 1274 200 1261.3C266.7 1248.7 333.3 1261.3 400 1274C466.7 1286.7 533.3 1299.3 600 1293C666.7 1286.7 733.3 1261.3 800 1251.8C866.7 1242.3 933.3 1248.7 1000 1267.7C1066.7 1286.7 1133.3 1318.3 1200 1327.8C1266.7 1337.3 1333.3 1324.7 1366.7 1318.3L1400 1312L1400 1196L1366.7 1202.3C1333.3 1208.7 1266.7 1221.3 1200 1208.7C1133.3 1196 1066.7 1158 1000 1135.8C933.3 1113.7 866.7 1107.3 800 1116.8C733.3 1126.3 666.7 1151.7 600 1161.2C533.3 1170.7 466.7 1164.3 400 1151.7C333.3 1139 266.7 1120 200 1132.7C133.3 1145.3 66.7 1189.7 33.3 1211.8L0 1234Z" fill="#ffc677"></path><path d="M0 1673L33.3 1673C66.7 1673 133.3 1673 200 1676.2C266.7 1679.3 333.3 1685.7 400 1682.5C466.7 1679.3 533.3 1666.7 600 1663.5C666.7 1660.3 733.3 1666.7 800 1669.8C866.7 1673 933.3 1673 1000 1669.8C1066.7 1666.7 1133.3 1660.3 1200 1657.2C1266.7 1654 1333.3 1654 1366.7 1654L1400 1654L1400 1310L1366.7 1316.3C1333.3 1322.7 1266.7 1335.3 1200 1325.8C1133.3 1316.3 1066.7 1284.7 1000 1265.7C933.3 1246.7 866.7 1240.3 800 1249.8C733.3 1259.3 666.7 1284.7 600 1291C533.3 1297.3 466.7 1284.7 400 1272C333.3 1259.3 266.7 1246.7 200 1259.3C133.3 1272 66.7 1310 33.3 1329L0 1348Z" fill="#febd60"></path><path d="M0 1749L33.3 1749C66.7 1749 133.3 1749 200 1752.2C266.7 1755.3 333.3 1761.7 400 1764.8C466.7 1768 533.3 1768 600 1764.8C666.7 1761.7 733.3 1755.3 800 1755.3C866.7 1755.3 933.3 1761.7 1000 1761.7C1066.7 1761.7 1133.3 1755.3 1200 1755.3C1266.7 1755.3 1333.3 1761.7 1366.7 1764.8L1400 1768L1400 1652L1366.7 1652C1333.3 1652 1266.7 1652 1200 1655.2C1133.3 1658.3 1066.7 1664.7 1000 1667.8C933.3 1671 866.7 1671 800 1667.8C733.3 1664.7 666.7 1658.3 600 1661.5C533.3 1664.7 466.7 1677.3 400 1680.5C333.3 1683.7 266.7 1677.3 200 1674.2C133.3 1671 66.7 1671 33.3 1671L0 1671Z" fill="#fdb447"></path><path d="M0 1901L33.3 1901C66.7 1901 133.3 1901 200 1901C266.7 1901 333.3 1901 400 1901C466.7 1901 533.3 1901 600 1901C666.7 1901 733.3 1901 800 1901C866.7 1901 933.3 1901 1000 1901C1066.7 1901 1133.3 1901 1200 1901C1266.7 1901 1333.3 1901 1366.7 1901L1400 1901L1400 1766L1366.7 1762.8C1333.3 1759.7 1266.7 1753.3 1200 1753.3C1133.3 1753.3 1066.7 1759.7 1000 1759.7C933.3 1759.7 866.7 1753.3 800 1753.3C733.3 1753.3 666.7 1759.7 600 1762.8C533.3 1766 466.7 1766 400 1762.8C333.3 1759.7 266.7 1753.3 200 1750.2C133.3 1747 66.7 1747 33.3 1747L0 1747Z" fill="#fcaa2b"></path></svg>