<svg id="visual" viewBox="0 0 900 1900" width="900" height="1900" xmlns="http://www.w3.org/2000/svg" xmlns:xlink="http://www.w3.org/1999/xlink" version="1.1"><path d="M0 457L25 434.8C50 412.7 100 368.3 150 349.3C200 330.3 250 336.7 300 339.8C350 343 400 343 450 339.8C500 336.7 550 330.3 600 327.2C650 324 700 324 750 333.5C800 343 850 362 875 371.5L900 381L900 0L875 0C850 0 800 0 750 0C700 0 650 0 600 0C550 0 500 0 450 0C400 0 350 0 300 0C250 0 200 0 150 0C100 0 50 0 25 0L0 0Z" fill="#ffffff"></path><path d="M0 647L25 640.7C50 634.3 100 621.7 150 612.2C200 602.7 250 596.3 300 590C350 583.7 400 577.3 450 571C500 564.7 550 558.3 600 555.2C650 552 700 552 750 564.7C800 577.3 850 602.7 875 615.3L900 628L900 379L875 369.5C850 360 800 341 750 331.5C700 322 650 322 600 325.2C550 328.3 500 334.7 450 337.8C400 341 350 341 300 337.8C250 334.7 200 328.3 150 347.3C100 366.3 50 410.7 25 432.8L0 455Z" fill="#fff7ec"></path><path d="M0 742L25 735.7C50 729.3 100 716.7 150 704C200 691.3 250 678.7 300 669.2C350 659.7 400 653.3 450 647C500 640.7 550 634.3 600 628C650 621.7 700 615.3 750 624.8C800 634.3 850 659.7 875 672.3L900 685L900 626L875 613.3C850 600.7 800 575.3 750 562.7C700 550 650 550 600 553.2C550 556.3 500 562.7 450 569C400 575.3 350 581.7 300 588C250 594.3 200 600.7 150 610.2C100 619.7 50 632.3 25 638.7L0 645Z" fill="#ffefda"></path><path d="M0 856L25 843.3C50 830.7 100 805.3 150 789.5C200 773.7 250 767.3 300 761C350 754.7 400 748.3 450 738.8C500 729.3 550 716.7 600 707.2C650 697.7 700 691.3 750 704C800 716.7 850 748.3 875 764.2L900 780L900 683L875 670.3C850 657.7 800 632.3 750 622.8C700 613.3 650 619.7 600 626C550 632.3 500 638.7 450 645C400 651.3 350 657.7 300 667.2C250 676.7 200 689.3 150 702C100 714.7 50 727.3 25 733.7L0 740Z" fill="#ffe7c7"></path><path d="M0 932L25 925.7C50 919.3 100 906.7 150 903.5C200 900.3 250 906.7 300 903.5C350 900.3 400 887.7 450 875C500 862.3 550 849.7 600 837C650 824.3 700 811.7 750 827.5C800 843.3 850 887.7 875 909.8L900 932L900 778L875 762.2C850 746.3 800 714.7 750 702C700 689.3 650 695.7 600 705.2C550 714.7 500 727.3 450 736.8C400 746.3 350 752.7 300 759C250 765.3 200 771.7 150 787.5C100 803.3 50 828.7 25 841.3L0 854Z" fill="#ffe0b5"></path><path d="M0 1065L25 1068.2C50 1071.3 100 1077.7 150 1080.8C200 1084 250 1084 300 1077.7C350 1071.3 400 1058.7 450 1039.7C500 1020.7 550 995.3 600 979.5C650 963.7 700 957.3 750 973.2C800 989 850 1027 875 1046L900 1065L900 930L875 907.8C850 885.7 800 841.3 750 825.5C700 809.7 650 822.3 600 835C550 847.7 500 860.3 450 873C400 885.7 350 898.3 300 901.5C250 904.7 200 898.3 150 901.5C100 904.7 50 917.3 25 923.7L0 930Z" fill="#ffd8a2"></path><path d="M0 1160L25 1156.8C50 1153.7 100 1147.3 150 1150.5C200 1153.7 250 1166.3 300 1166.3C350 1166.3 400 1153.7 450 1128.3C500 1103 550 1065 600 1042.8C650 1020.7 700 1014.3 750 1036.5C800 1058.7 850 1109.3 875 1134.7L900 1160L900 1063L875 1044C850 1025 800 987 750 971.2C700 955.3 650 961.7 600 977.5C550 993.3 500 1018.7 450 1037.7C400 1056.7 350 1069.3 300 1075.7C250 1082 200 1082 150 1078.8C100 1075.7 50 1069.3 25 1066.2L0 1063Z" fill="#ffd090"></path><path d="M0 1274L25 1261.3C50 1248.7 100 1223.3 150 1217C200 1210.7 250 1223.3 300 1229.7C350 1236 400 1236 450 1213.8C500 1191.7 550 1147.3 600 1125.2C650 1103 700 1103 750 1131.5C800 1160 850 1217 875 1245.5L900 1274L900 1158L875 1132.7C850 1107.3 800 1056.7 750 1034.5C700 1012.3 650 1018.7 600 1040.8C550 1063 500 1101 450 1126.3C400 1151.7 350 1164.3 300 1164.3C250 1164.3 200 1151.7 150 1148.5C100 1145.3 50 1151.7 25 1154.8L0 1158Z" fill="#ffc97d"></path><path d="M0 1635L25 1622.3C50 1609.7 100 1584.3 150 1571.7C200 1559 250 1559 300 1562.2C350 1565.3 400 1571.7 450 1559C500 1546.3 550 1514.7 600 1505.2C650 1495.7 700 1508.3 750 1530.5C800 1552.7 850 1584.3 875 1600.2L900 1616L900 1272L875 1243.5C850 1215 800 1158 750 1129.5C700 1101 650 1101 600 1123.2C550 1145.3 500 1189.7 450 1211.8C400 1234 350 1234 300 1227.7C250 1221.3 200 1208.7 150 1215C100 1221.3 50 1246.7 25 1259.3L0 1272Z" fill="#ffc16a"></path><path d="M0 1692L25 1679.3C50 1666.7 100 1641.3 150 1628.7C200 1616 250 1616 300 1619.2C350 1622.3 400 1628.7 450 1619.2C500 1609.7 550 1584.3 600 1578C650 1571.7 700 1584.3 750 1603.3C800 1622.3 850 1647.7 875 1660.3L900 1673L900 1614L875 1598.2C850 1582.3 800 1550.7 750 1528.5C700 1506.3 650 1493.7 600 1503.2C550 1512.7 500 1544.3 450 1557C400 1569.7 350 1563.3 300 1560.2C250 1557 200 1557 150 1569.7C100 1582.3 50 1607.7 25 1620.3L0 1633Z" fill="#feba57"></path><path d="M0 1768L25 1764.8C50 1761.7 100 1755.3 150 1752.2C200 1749 250 1749 300 1742.7C350 1736.3 400 1723.7 450 1714.2C500 1704.7 550 1698.3 600 1698.3C650 1698.3 700 1704.7 750 1714.2C800 1723.7 850 1736.3 875 1742.7L900 1749L900 1671L875 1658.3C850 1645.7 800 1620.3 750 1601.3C700 1582.3 650 1569.7 600 1576C550 1582.3 500 1607.7 450 1617.2C400 1626.7 350 1620.3 300 1617.2C250 1614 200 1614 150 1626.7C100 1639.3 50 1664.7 25 1677.3L0 1690Z" fill="#fdb243"></path><path d="M0 1901L25 1901C50 1901 100 1901 150 1901C200 1901 250 1901 300 1901C350 1901 400 1901 450 1901C500 1901 550 1901 600 1901C650 1901 700 1901 750 1901C800 1901 850 1901 875 1901L900 1901L900 1747L875 1740.7C850 1734.3 800 1721.7 750 1712.2C700 1702.7 650 1696.3 600 1696.3C550 1696.3 500 1702.7 450 1712.2C400 1721.7 350 1734.3 300 1740.7C250 1747 200 1747 150 1750.2C100 1753.3 50 1759.7 25 1762.8L0 1766Z" fill="#fcaa2b"></path></svg>